<?xml version="1.0" encoding="UTF-8" standalone="no"?>
<!-- Created with Inkscape (http://www.inkscape.org/) -->

<svg
   xmlns:dc="http://purl.org/dc/elements/1.1/"
   xmlns:cc="http://creativecommons.org/ns#"
   xmlns:rdf="http://www.w3.org/1999/02/22-rdf-syntax-ns#"
   xmlns:svg="http://www.w3.org/2000/svg"
   xmlns="http://www.w3.org/2000/svg"
   xmlns:sodipodi="http://sodipodi.sourceforge.net/DTD/sodipodi-0.dtd"
   xmlns:inkscape="http://www.inkscape.org/namespaces/inkscape"
   width="128"
   height="128"
   id="svg2"
   version="1.1"
   inkscape:version="0.48.4 r9939"
   sodipodi:docname="button.svg"
   inkscape:export-filename="/home/lars/Development/java_workspace/HorsesInSpace/android/assets/data/buttons/button.png"
   inkscape:export-xdpi="90"
   inkscape:export-ydpi="90">
  <defs
     id="defs4" />
  <sodipodi:namedview
     id="base"
     pagecolor="#ffffff"
     bordercolor="#666666"
     borderopacity="1.0"
     inkscape:pageopacity="0.0"
     inkscape:pageshadow="2"
     inkscape:zoom="7.9195959"
     inkscape:cx="30.773922"
     inkscape:cy="56.565228"
     inkscape:document-units="px"
     inkscape:current-layer="layer1"
     showgrid="false"
     fit-margin-top="0"
     fit-margin-left="0"
     fit-margin-right="0"
     fit-margin-bottom="0"
     inkscape:window-width="3070"
     inkscape:window-height="1752"
     inkscape:window-x="130"
     inkscape:window-y="48"
     inkscape:window-maximized="1" />
  <metadata
     id="metadata7">
    <rdf:RDF>
      <cc:Work
         rdf:about="">
        <dc:format>image/svg+xml</dc:format>
        <dc:type
           rdf:resource="http://purl.org/dc/dcmitype/StillImage" />
        <dc:title></dc:title>
      </cc:Work>
    </rdf:RDF>
  </metadata>
  <g
     inkscape:label="Layer 1"
     inkscape:groupmode="layer"
     id="layer1"
     transform="translate(-190.28575,-182.6479)">
    <path
       style="fill:#ffffff;fill-opacity:1"
       d="m 229.67605,182.84886 0,6.48847 c 10.22892,3.07789 17.69025,12.57786 17.69025,23.81146 0,11.23309 -7.46205,20.72567 -17.69025,23.81147 l 0,6.51908 c 13.74891,-3.24719 23.99509,-15.59001 23.99509,-30.33055 0,-14.74052 -10.24618,-27.0592 -23.99509,-30.29993 z m -7.06999,2.47909 -17.32299,17.44542 -14.8133,0 0,20.90388 15.18057,0 0.0305,0 16.92512,17.07815 0,-55.42745 z m 7.06999,13.09936 0,29.35115 c 5.41611,-2.67394 9.15119,-8.242 9.15119,-14.69088 0,-6.44887 -3.73508,-11.98634 -9.15119,-14.66027 z"
       id="rect2996"
       inkscape:connector-curvature="0" />
    <path
       style="fill:#ffffff;fill-opacity:1"
       d="M 104.09375 0.1875 L 104.09375 6.6875 C 114.32269 9.76539 121.78125 19.2664 121.78125 30.5 C 121.78125 32.706259 121.47763 34.838378 120.9375 36.875 L 125.90625 41.875 C 127.29146 38.349848 128.0625 34.516765 128.0625 30.5 C 128.0625 15.75948 117.84267 3.42823 104.09375 0.1875 z M 97 2.6875 L 92.03125 7.6875 L 97 12.71875 L 97 2.6875 z M 104.09375 15.78125 L 104.09375 19.875 L 113.15625 29.03125 C 112.65443 23.194882 109.10875 18.257154 104.09375 15.78125 z M 80.0625 19.71875 L 79.6875 20.125 L 64.875 20.125 L 64.875 41.03125 L 80.0625 41.03125 L 80.09375 41.03125 L 97 58.09375 L 97 36.8125 L 80.0625 19.71875 z M 111.03125 50.96875 C 108.92614 52.425712 106.60018 53.556323 104.09375 54.3125 L 104.09375 60.84375 C 108.28848 59.853047 112.14887 57.993788 115.5 55.5 L 111.03125 50.96875 z "
       transform="translate(190.28575,182.6479)"
       id="rect2996-6" />
    <rect
       style="fill:#ffffff;fill-opacity:1"
       id="rect3829-7"
       width="7.4138751"
       height="69.898788"
       x="53.80275"
       y="319.77655"
       transform="matrix(0.70189552,-0.71227991,0.70562608,0.70858439,0,0)" />
  </g>
</svg>
