<?xml version="1.0" encoding="UTF-8" standalone="no"?>
<!-- Created with Inkscape (http://www.inkscape.org/) -->

<svg
   xmlns:dc="http://purl.org/dc/elements/1.1/"
   xmlns:cc="http://creativecommons.org/ns#"
   xmlns:rdf="http://www.w3.org/1999/02/22-rdf-syntax-ns#"
   xmlns:svg="http://www.w3.org/2000/svg"
   xmlns="http://www.w3.org/2000/svg"
   xmlns:sodipodi="http://sodipodi.sourceforge.net/DTD/sodipodi-0.dtd"
   xmlns:inkscape="http://www.inkscape.org/namespaces/inkscape"
   width="256"
   height="128"
   id="svg3872"
   version="1.1"
   inkscape:version="0.48.4 r9939"
   sodipodi:docname="pbutton.svg"
   inkscape:export-filename="/home/lars/Development/java_workspace/HorsesInSpace/android/assets/data/buttons/pbutton.png"
   inkscape:export-xdpi="90"
   inkscape:export-ydpi="90">
  <defs
     id="defs3874" />
  <sodipodi:namedview
     id="base"
     pagecolor="#ffffff"
     bordercolor="#666666"
     borderopacity="1.0"
     inkscape:pageopacity="0.0"
     inkscape:pageshadow="2"
     inkscape:zoom="7.9195959"
     inkscape:cx="124.83748"
     inkscape:cy="71.525091"
     inkscape:document-units="px"
     inkscape:current-layer="layer1"
     showgrid="false"
     fit-margin-top="0"
     fit-margin-left="0"
     fit-margin-right="0"
     fit-margin-bottom="0"
     inkscape:window-width="3070"
     inkscape:window-height="1752"
     inkscape:window-x="130"
     inkscape:window-y="48"
     inkscape:window-maximized="1" />
  <metadata
     id="metadata3877">
    <rdf:RDF>
      <cc:Work
         rdf:about="">
        <dc:format>image/svg+xml</dc:format>
        <dc:type
           rdf:resource="http://purl.org/dc/dcmitype/StillImage" />
        <dc:title></dc:title>
      </cc:Work>
    </rdf:RDF>
  </metadata>
  <g
     inkscape:label="Layer 1"
     inkscape:groupmode="layer"
     id="layer1"
     transform="translate(-143.42859,-225.50504)">
    <path
       style="fill:#ffffff;fill-opacity:1"
       d="M 32.625 0.96875 C 14.807328 0.96875 0.375 15.432328 0.375 33.25 C 0.375 51.067672 14.807328 65.5 32.625 65.5 C 50.442672 65.5 64.90625 51.067672 64.90625 33.25 C 64.90625 15.432328 50.442672 0.96875 32.625 0.96875 z M 32.625 8.8125 C 46.11901 8.8125 57.0625 19.75599 57.0625 33.25 C 57.0625 46.74401 46.11901 57.65625 32.625 57.65625 C 19.13099 57.65625 8.21875 46.74401 8.21875 33.25 C 8.21875 19.75599 19.13099 8.8125 32.625 8.8125 z "
       transform="translate(143.42859,225.50504)"
       id="path4403" />
    <rect
       style="fill:#ffffff;fill-opacity:1"
       id="rect4424"
       width="8.207489"
       height="16.162441"
       x="20.834396"
       y="24.838171"
       transform="translate(143.42859,225.50504)" />
    <rect
       style="fill:#ffffff;fill-opacity:1"
       id="rect4424-1"
       width="8.207489"
       height="16.162441"
       x="180.26299"
       y="250.34322" />
    <path
       inkscape:connector-curvature="0"
       style="fill:#ffffff;fill-opacity:1"
       d="m 242.30613,226.47379 c -17.81767,0 -32.25,14.46358 -32.25,32.28125 0,17.81767 14.43233,32.25 32.25,32.25 17.81767,0 32.28125,-14.43233 32.28125,-32.25 0,-17.81767 -14.46358,-32.28125 -32.28125,-32.28125 z m 0,7.84375 c 13.49401,0 24.4375,10.94349 24.4375,24.4375 0,13.49401 -10.94349,24.40625 -24.4375,24.40625 -13.49401,0 -24.40625,-10.91224 -24.40625,-24.40625 0,-13.49401 10.91224,-24.4375 24.40625,-24.4375 z"
       id="path4403-9" />
    <path
       sodipodi:type="star"
       style="fill:#ffffff;fill-opacity:1"
       id="path4471"
       sodipodi:sides="3"
       sodipodi:cx="89.90358"
       sodipodi:cy="20.039948"
       sodipodi:r1="15.436361"
       sodipodi:r2="7.7181807"
       sodipodi:arg1="2.0943951"
       sodipodi:arg2="3.1415927"
       inkscape:flatsided="true"
       inkscape:rounded="0"
       inkscape:randomized="0"
       d="m 82.185399,33.408229 0,-26.7365625 23.154541,13.3682805 z"
       transform="matrix(0.85821375,0,0,0.88193221,164.04645,241.06623)"
       inkscape:transform-center-x="-3.3119249" />
  </g>
</svg>
